<svg width="1280" height="213" viewBox="0 0 1280 213" fill="none" xmlns="http://www.w3.org/2000/svg">
<path d="M0 3.21133H72.1907C85.4642 3.21133 96.5968 5.60912 105.589 10.4047C114.58 15.2003 121.303 21.837 125.756 30.315C130.209 38.7072 132.435 48.384 132.435 59.3454C132.435 70.6492 130.037 79.7266 125.242 86.5774C120.446 93.4283 113.167 98.1382 103.405 100.707V102.506C115.651 104.304 124.899 109.485 131.151 118.048C137.402 126.526 140.528 137.83 140.528 151.96C140.528 170.115 135.218 184.245 124.6 194.35C113.981 204.455 98.3095 209.507 77.5857 209.507H0V3.21133ZM68.7225 88.3758C73.0899 88.3758 77.0291 87.391 80.5401 85.4214C84.1368 83.3661 86.92 80.4545 88.8896 76.6865C90.9449 72.833 91.9725 68.2943 91.9725 63.0705C91.9725 55.192 89.9172 49.2404 85.8067 45.2155C81.7819 41.105 76.1299 39.0498 68.8509 39.0498H43.4172V88.3758H68.7225ZM71.2915 174.568C79.5125 174.568 85.8067 172.127 90.1741 167.246C94.5415 162.365 96.7252 155.471 96.7252 146.565C96.7252 137.745 94.4131 131.022 89.7888 126.398C85.1645 121.688 78.9987 119.333 71.2915 119.333H43.4172V174.568H71.2915Z" fill="black"/>
<path d="M157.494 3.21133H202.709V171.228H261.284V209.507H157.494V3.21133Z" fill="black"/>
<path d="M335.926 212.462C311.605 212.462 293.408 203.812 281.333 186.514C269.344 169.216 263.35 142.497 263.35 106.359C263.35 70.2211 269.344 43.5028 281.333 26.2044C293.408 8.90609 311.605 0.256906 335.926 0.256906C360.846 0.256906 379.514 8.90609 391.931 26.2044C404.348 43.5028 410.557 70.2211 410.557 106.359C410.557 142.497 404.348 169.216 391.931 186.514C379.514 203.812 360.846 212.462 335.926 212.462ZM337.082 173.412C346.759 173.412 354.038 168.188 358.919 157.741C363.8 147.207 366.241 130.08 366.241 106.359C366.241 82.3813 363.8 65.0401 358.919 54.3357C354.038 43.6313 346.759 38.279 337.082 38.279C327.405 38.279 320.083 43.6313 315.116 54.3357C310.149 65.0401 307.666 82.3813 307.666 106.359C307.666 130.08 310.107 147.207 314.988 157.741C319.955 168.188 327.319 173.412 337.082 173.412Z" fill="black"/>
<path d="M576.015 94.1562V209.507H541.204L539.02 178.421C537.65 185.957 534.781 192.294 530.414 197.433C526.047 202.485 520.78 206.253 514.614 208.736C508.534 211.22 502.154 212.462 495.475 212.462C479.461 212.462 466.187 207.837 455.654 198.589C445.121 189.34 437.328 176.709 432.276 160.695C427.309 144.595 424.825 126.141 424.825 105.332C424.825 73.047 431.077 47.442 443.58 28.5166C456.082 9.50554 475.907 0 503.053 0C517.954 0 530.5 2.61188 540.69 7.83564C550.967 13.0594 558.888 20.21 564.454 29.2873C570.106 38.279 573.703 48.6409 575.244 60.373L537.736 68.3371C536.109 57.3758 532.769 49.2404 527.716 43.931C522.664 38.6216 515.085 35.9669 504.98 35.9669C495.218 35.9669 487.682 39.0926 482.372 45.344C477.149 51.5954 473.638 59.7735 471.839 69.8785C470.041 79.8979 469.142 91.8868 469.142 105.845C469.142 126.912 471.582 143.568 476.464 155.814C481.431 167.974 490.379 174.054 503.31 174.054C511.617 174.054 518.211 171.357 523.092 165.962C527.973 160.481 531.142 153.159 532.598 143.996C533.454 137.83 533.925 131.921 534.011 126.269H505.751V94.1562H576.015Z" fill="black"/>
<path d="M654.253 212.333C643.72 212.333 633.743 210.535 624.324 206.938C614.904 203.341 606.64 197.004 599.532 187.927C592.51 178.764 588.057 166.432 586.173 150.932L622.525 137.959C624.324 150.376 627.963 159.753 633.444 166.09C638.924 172.341 645.604 175.467 653.482 175.467C659.563 175.467 664.358 173.583 667.869 169.815C671.38 165.962 673.136 160.181 673.136 152.474C673.136 146.908 671.937 142.24 669.539 138.473C667.227 134.619 664.144 131.322 660.29 128.582C656.437 125.841 650.656 122.373 642.949 118.177C641.922 117.577 640.937 117.064 639.995 116.635C639.139 116.122 638.368 115.651 637.683 115.223C628.006 109.827 620.213 105.032 614.304 100.836C608.395 96.6396 603.172 91.0305 598.633 84.0084C594.18 76.9006 591.953 68.3799 591.953 58.4462C591.953 39.7777 596.835 25.4765 606.597 15.5428C616.445 5.60912 631.346 0.642266 651.299 0.642266C665.685 0.642266 678.616 4.32459 690.092 11.6892C701.652 18.9683 709.145 31.8564 712.571 50.3536L679.173 62.9421C677.46 53.9503 674.506 47.1423 670.31 42.518C666.199 37.8081 660.376 35.4531 652.84 35.4531C646.674 35.4531 641.922 37.123 638.582 40.4628C635.328 43.8025 633.701 47.9987 633.701 53.0512C633.701 56.9904 634.9 60.5014 637.297 63.5843C639.695 66.5816 642.735 69.2363 646.417 71.5484C650.185 73.8606 655.366 76.7294 661.96 80.1548C668.383 83.5802 673.179 86.1921 676.347 87.9904C684.054 92.4435 690.734 97.1534 696.386 102.12C702.123 107.087 706.962 113.553 710.901 121.517C714.84 129.481 716.81 139.029 716.81 150.162C716.81 162.921 714.326 173.968 709.359 183.303C704.393 192.637 697.199 199.83 687.779 204.883C678.359 209.85 667.184 212.333 654.253 212.333Z" fill="black"/>
<path d="M711.04 3.21133H757.925L786.956 167.503H788.882L815.729 3.21133H862.101L816.5 209.507H756.769L711.04 3.21133Z" fill="black"/>
<path d="M869.69 3.21133H914.006V209.507H869.69V3.21133Z" fill="black"/>
<path d="M942.404 3.21133H987.62V171.228H1046.19V209.507H942.404V3.21133Z" fill="black"/>
<path d="M1058.54 3.21133H1103.75V171.228H1162.33V209.507H1058.54V3.21133Z" fill="black"/>
<path d="M1174.67 3.21133H1280V41.4904H1219.88V86.9628H1273.19V125.242H1219.88V171.1H1280V209.507H1174.67V3.21133Z" fill="black"/>
</svg>
