<svg width="120" height="20" viewBox="0 0 120 20" fill="none" xmlns="http://www.w3.org/2000/svg">
<path d="M0 0.302297H6.76788C8.01227 0.302297 9.05595 0.528013 9.89892 0.979444C10.7419 1.43087 11.3721 2.05562 11.7896 2.85369C12.2071 3.64369 12.4158 4.55462 12.4158 5.58646C12.4158 6.65054 12.191 7.50504 11.7414 8.14994C11.2918 8.79484 10.6094 9.23821 9.6942 9.48005V9.64933C10.8423 9.81862 11.7093 10.3063 12.2954 11.1125C12.8814 11.9105 13.1745 12.9746 13.1745 14.3047C13.1745 16.0137 12.6767 17.3438 11.6812 18.295C10.6857 19.2463 9.21652 19.7219 7.27366 19.7219H0V0.302297ZM6.44273 8.31923C6.85217 8.31923 7.22148 8.22652 7.55064 8.04111C7.88783 7.84764 8.14875 7.57356 8.3334 7.21886C8.52608 6.85611 8.62242 6.42886 8.62242 5.93712C8.62242 5.19549 8.42974 4.63523 8.04438 4.25635C7.66705 3.86941 7.13718 3.67594 6.45477 3.67594H4.07036V8.31923H6.44273ZM6.68358 16.4329C7.4543 16.4329 8.04438 16.2031 8.45382 15.7437C8.86327 15.2842 9.06799 14.6352 9.06799 13.7969C9.06799 12.9665 8.85123 12.3337 8.4177 11.8984C7.98417 11.4551 7.40613 11.2334 6.68358 11.2334H4.07036V16.4329H6.68358Z" fill="black"/>
<path d="M14.7651 0.302297H19.004V16.1185H24.4954V19.7219H14.7651V0.302297Z" fill="black"/>
<path d="M31.493 20C29.213 20 27.507 19.1858 26.375 17.5574C25.251 15.9291 24.689 13.4139 24.689 10.0121C24.689 6.61024 25.251 4.09512 26.375 2.46675C27.507 0.838372 29.213 0.0241838 31.493 0.0241838C33.8293 0.0241838 35.5794 0.838372 36.7436 2.46675C37.9077 4.09512 38.4897 6.61024 38.4897 10.0121C38.4897 13.4139 37.9077 15.9291 36.7436 17.5574C35.5794 19.1858 33.8293 20 31.493 20ZM31.6014 16.3241C32.5086 16.3241 33.191 15.8323 33.6486 14.8489C34.1062 13.8573 34.3351 12.2451 34.3351 10.0121C34.3351 7.75494 34.1062 6.12253 33.6486 5.11487C33.191 4.10721 32.5086 3.60339 31.6014 3.60339C30.6942 3.60339 30.0078 4.10721 29.5421 5.11487C29.0765 6.12253 28.8437 7.75494 28.8437 10.0121C28.8437 12.2451 29.0725 13.8573 29.5301 14.8489C29.9957 15.8323 30.6862 16.3241 31.6014 16.3241Z" fill="black"/>
<path d="M54.0014 8.86336V19.7219H50.7379L50.5332 16.7956C50.4047 17.505 50.1358 18.1016 49.7263 18.5852C49.3169 19.0609 48.8231 19.4156 48.2451 19.6493C47.6751 19.8831 47.077 20 46.4508 20C44.9495 20 43.7051 19.5647 42.7176 18.6941C41.7301 17.8235 40.9995 16.6344 40.5259 15.127C40.0602 13.6114 39.8274 11.8742 39.8274 9.91536C39.8274 6.87626 40.4135 4.46594 41.5856 2.6844C42.7577 0.8948 44.6163 0 47.1613 0C48.5582 0 49.7343 0.245869 50.6897 0.737606C51.6531 1.22934 52.3957 1.90246 52.9176 2.75695C53.4474 3.60339 53.7846 4.5788 53.9291 5.68319L50.4127 6.43289C50.2602 5.40105 49.9471 4.63523 49.4734 4.13543C48.9997 3.63563 48.2892 3.38573 47.3419 3.38573C46.4267 3.38573 45.7202 3.67997 45.2224 4.26844C44.7327 4.85691 44.4035 5.62676 44.2349 6.57799C44.0663 7.52116 43.982 8.64974 43.982 9.96372C43.982 11.9468 44.2109 13.5147 44.6685 14.6675C45.1341 15.8122 45.9731 16.3845 47.1853 16.3845C47.9641 16.3845 48.5823 16.1306 49.0399 15.6227C49.4975 15.1068 49.7946 14.4176 49.931 13.555C50.0113 12.9746 50.0555 12.4184 50.0635 11.8863H47.4142V8.86336H54.0014Z" fill="black"/>
<path d="M61.3362 19.9879C60.3487 19.9879 59.4134 19.8186 58.5303 19.48C57.6472 19.1415 56.8725 18.5449 56.2061 17.6904C55.5478 16.8279 55.1303 15.6671 54.9537 14.208L58.3617 12.9867C58.5303 14.1556 58.8715 15.0383 59.3853 15.6348C59.8992 16.2233 60.5254 16.5175 61.264 16.5175C61.834 16.5175 62.2836 16.3402 62.6127 15.9855C62.9419 15.6227 63.1065 15.0786 63.1065 14.3531C63.1065 13.8291 62.9941 13.3898 62.7693 13.0351C62.5525 12.6723 62.2635 12.362 61.9022 12.104C61.541 11.846 60.999 11.5195 60.2765 11.1245C60.1802 11.0681 60.0878 11.0197 59.9995 10.9794C59.9192 10.9311 59.847 10.8867 59.7828 10.8464C58.8756 10.3386 58.145 9.88714 57.591 9.49214C57.0371 9.09714 56.5473 8.56913 56.1218 7.9081C55.7044 7.23902 55.4956 6.43692 55.4956 5.50181C55.4956 3.74446 55.9532 2.39823 56.8685 1.46312C57.7917 0.528013 59.1887 0.0604595 61.0593 0.0604595C62.408 0.0604595 63.6203 0.407094 64.6961 1.10036C65.7799 1.78557 66.4824 2.99879 66.8035 4.74002L63.6725 5.92503C63.5119 5.0786 63.2349 4.43773 62.8415 4.00242C62.4562 3.55905 61.9103 3.33736 61.2038 3.33736C60.6257 3.33736 60.1802 3.49456 59.8671 3.80895C59.562 4.12334 59.4094 4.51834 59.4094 4.99395C59.4094 5.36477 59.5218 5.69528 59.7466 5.98549C59.9714 6.26763 60.2564 6.51753 60.6016 6.73519C60.9549 6.95284 61.4406 7.22289 62.0588 7.54534C62.6609 7.86779 63.1105 8.11366 63.4075 8.28295C64.1301 8.70214 64.7563 9.14551 65.2862 9.61306C65.8241 10.0806 66.2777 10.6892 66.647 11.4389C67.0163 12.1886 67.2009 13.0875 67.2009 14.1354C67.2009 15.3366 66.9681 16.3765 66.5025 17.2551C66.0368 18.1338 65.3624 18.811 64.4793 19.2866C63.5962 19.7541 62.5485 19.9879 61.3362 19.9879Z" fill="black"/>
<path d="M66.66 0.302297H71.0555L73.7771 15.7678H73.9577L76.4746 0.302297H80.8219L76.5469 19.7219H70.9471L66.66 0.302297Z" fill="black"/>
<path d="M81.5334 0.302297H85.6881V19.7219H81.5334V0.302297Z" fill="black"/>
<path d="M88.3504 0.302297H92.5894V16.1185H98.0807V19.7219H88.3504V0.302297Z" fill="black"/>
<path d="M99.2378 0.302297H103.477V16.1185H108.968V19.7219H99.2378V0.302297Z" fill="black"/>
<path d="M110.125 0.302297H120V3.90568H114.364V8.18622H119.362V11.7896H114.364V16.1064H120V19.7219H110.125V0.302297Z" fill="black"/>
</svg>
